# Blender v2.67 (sub 1) OBJ File: 'Crate1.blend'
# www.blender.org
mtllib Crate1.mtl
o Cube_Cube.001
usemtl Material.001
v -1.0 -1.0 1.0
v -1.0 -1.0 -1.0
v 1.0 -1.0 -1.0
v 1.0 -1.0 1.0
v -1.0 1.0 1.0
v -1.0 1.0 -1.0
v 1.0 1.0 -1.0
v 1.0 1.0 1.0
vt 0.0 0.0
vt 1.0 0.0
vt 1.0 1.0
vt 0.0 1.0
vn -0.5773502691896258 -0.5773502691896258 0.5773502691896258
vn -0.5773502691896258 -0.5773502691896258 -0.5773502691896258
vn 0.5773502691896258 -0.5773502691896258 -0.5773502691896258
vn 0.5773502691896258 -0.5773502691896258 0.5773502691896258
vn -0.5773502691896258 0.5773502691896258 0.5773502691896258
vn -0.5773502691896258 0.5773502691896258 -0.5773502691896258
vn 0.5773502691896258 0.5773502691896258 -0.5773502691896258
vn 0.5773502691896258 0.5773502691896258 0.5773502691896258
f 5/1/5 6/2/6 2/3/2 1/4/1
f 6/1/6 7/2/7 3/3/3 2/4/2
f 7/1/7 8/2/8 4/3/4 3/4/3
f 8/1/8 5/2/5 1/3/1 4/4/4
f 1/1/1 2/2/2 3/3/3 4/4/4
f 8/1/8 7/2/7 6/3/6 5/4/5
